# xmcd
#
# Track frame offsets:
#	182
#	17665
#	34457
#	51125
#	67090
#	81042
#	99507
#	113890
#	128112
#	143615
#	159052
#	174052
#	190155
#	205135
#	223002
#	238032
#	255852
#	270567
#	284152
#	297757
#
# Disc length: 4197 seconds
# Revision: 3
# Processed by: cddbd v1.5.2PL0 Copyright (c) Steve Scherf et al.
# Submitted via: dBpowerAMP V12.0
#
DISCID=1b106314
DTITLE=Various Artist - 25 Years Of Rock'n Roll - 1981
DYEAR=1981
DGENRE=Rock
TTITLE0=Blondie - The Tide Is High
TTITLE1=Kim Carnes - Bette Davis Eyes
TTITLE2=The Specials - Ghost Town
TTITLE3=Undertones - It's Gonna Happen
TTITLE4=Haircut 100 - Favourite Shirts
TTITLE5=Spandau Ballet - Chant No.1
TTITLE6=Toyah - I Want To Be Free
TTITLE7=Elvis Costello and The Attractions - A Good Year For The Roses
TTITLE8=Kim Wilde - Kids In America
TTITLE9=Stray Cats - Rock This Town
TTITLE10=Godley and Creme - Wedding Bells
TTITLE11=Earth, Wind and Fire - Let's Grove
TTITLE12=REO Speedwagon - Keep On Loving You
TTITLE13=ABBA - One Of Us
TTITLE14=Champaign - How 'Bout Us
TTITLE15=Aneka - Japanese Boy
TTITLE16=Kiki Dee - Star
TTITLE17=Sheena Easton - For Your Eyes Only
TTITLE18=Racey - Runaround Sue
TTITLE19=Visage - Fade To Grey
EXTD=
EXTT0=
EXTT1=
EXTT2=
EXTT3=
EXTT4=
EXTT5=
EXTT6=
EXTT7=
EXTT8=
EXTT9=
EXTT10=
EXTT11=
EXTT12=
EXTT13=
EXTT14=
EXTT15=
EXTT16=
EXTT17=
EXTT18=
EXTT19=
PLAYORDER=
